# File created by Blade
# Date/Time:  Thu Jan 22 16:21:39 2015
# Frame Rate: 120.000 fps
#------------------------------------------------------
:FULLY-SPECIFIED
:DEGREES
1386
root -13.419516 33.843215 -6.100139 2.939066 5.937259 7.844431
RightUpLeg -26.881321 8.229083 11.711204
RightLeg 18.309903 -0.000000 -0.000000
RightFoot -3.416295 -24.535316 2.560251
RightToeBase 13.350435 -0.000000 -0.000000
LeftUpLeg 13.429451 0.301773 -31.194247
LeftLeg -5.313048 -0.000000 0.000000
LeftFoot -8.521042 1.837492 -5.061820
LeftToeBase 2.973105 -0.000000 -0.000000
Spine 20.516406 -14.723244 39.326422
RightShoulder 11.258240 -14.413181 -6.453665
RightArm 13.878937 10.424366 61.732425
RightForeArm 27.313462 0.000000 17.260978
RightHand 11.533557 -0.000000 -20.772800
RightHandThumb1 -24.326973 -0.000000 -32.862282
LeftShoulder -23.778982 8.995142 46.637092
LeftArm 139.633228 -68.154982 -85.200640
LeftForeArm 28.427151 -0.000000 37.387873
LeftHand -17.649794 -0.000000 14.865767
LeftHandThumb1 -26.253704 0.000000 33.147579
Head 23.554948 -1.660472 55.067050
1387
root -13.415764 33.838284 -6.100067 2.954940 5.860147 7.841603
RightUpLeg -26.929578 8.239575 11.731565
RightLeg 18.388709 -0.000000 -0.000000
RightFoot -3.397197 -24.493787 2.461396
RightToeBase 13.357530 -0.000000 -0.000000
LeftUpLeg 13.401742 0.357262 -31.202633
LeftLeg -5.342076 -0.000000 0.000000
LeftFoot -8.524659 1.822442 -5.059888
LeftToeBase 2.969279 -0.000000 -0.000000
Spine 20.565365 -14.746970 39.332159
RightShoulder 11.281706 -14.367786 -6.463667
RightArm 13.895747 10.450397 61.733627
RightForeArm 27.164720 -0.000000 17.240542
RightHand 11.539850 0.000000 -20.752562
RightHandThumb1 -24.326973 -0.000000 -32.862282
LeftShoulder -23.810796 8.954807 46.697739
LeftArm 139.774391 -68.084587 -85.322406
LeftForeArm 28.116043 0.000000 37.587389
LeftHand -17.674839 -0.000000 14.876685
LeftHandThumb1 -26.253704 0.000000 33.147579
Head 23.617328 -1.713462 55.017318
1388
root -13.411889 33.833908 -6.100399 2.973977 5.777128 7.844607
RightUpLeg -26.984698 8.254131 11.742841
RightLeg 18.469777 -0.000000 -0.000000
RightFoot -3.387431 -24.436336 2.409046
RightToeBase 13.322257 -0.000000 -0.000000
LeftUpLeg 13.361323 0.422420 -31.214024
LeftLeg -5.360697 -0.000000 0.000000
LeftFoot -8.519838 1.811640 -5.018532
LeftToeBase 2.901671 -0.000000 -0.000000
Spine 20.607577 -14.750866 39.340408
RightShoulder 11.300847 -14.315333 -6.472649
RightArm 13.895881 10.451388 61.741608
RightForeArm 27.261895 0.000000 17.251188
RightHand 11.554968 -0.000000 -20.892620
RightHandThumb1 -24.326973 -0.000000 -32.862282
LeftShoulder -23.830006 8.951821 46.674047
LeftArm 140.158174 -67.978440 -85.544491
LeftForeArm 27.972443 -0.000000 37.705452
LeftHand -17.615080 -0.000000 14.965907
LeftHandThumb1 -26.253704 0.000000 33.147579
Head 23.703565 -1.703235 55.031343
1389
root -13.407938 33.829444 -6.100543 2.990188 5.688501 7.842332
RightUpLeg -27.033152 8.283904 11.757038
RightLeg 18.548528 -0.000000 -0.000000
RightFoot -3.370977 -24.384853 2.350398
RightToeBase 13.324631 -0.000000 -0.000000
LeftUpLeg 13.321599 0.460025 -31.228107
LeftLeg -5.378729 -0.000000 0.000000
LeftFoot -8.516554 1.817373 -5.041728
LeftToeBase 2.866282 -0.000000 -0.000000
Spine 20.663748 -14.750508 39.346563
RightShoulder 11.308805 -14.273073 -6.468586
RightArm 13.901178 10.422104 61.725472
RightForeArm 27.281381 -0.000000 17.265235
RightHand 11.573526 -0.000000 -20.983153
RightHandThumb1 -24.326973 -0.000000 -32.862282
LeftShoulder -23.878538 8.954864 46.703388
LeftArm 140.413726 -67.845238 -85.694731
LeftForeArm 27.753320 0.000000 37.874513
LeftHand -17.597474 -0.000000 15.095943
LeftHandThumb1 -26.253704 0.000000 33.147579
Head 23.798392 -1.753117 54.999303
1390
root -13.403745 33.825353 -6.099907 3.009010 5.601850 7.838255
RightUpLeg -27.080004 8.326416 11.768008
RightLeg 18.616861 -0.000000 -0.000000
RightFoot -3.346077 -24.356289 2.271060
RightToeBase 13.251719 -0.000000 -0.000000
LeftUpLeg 13.282171 0.503436 -31.237199
LeftLeg -5.401078 -0.000000 0.000000
LeftFoot -8.548286 1.794630 -5.090381
LeftToeBase 2.936968 -0.000000 -0.000000
Spine 20.704696 -14.753176 39.365303
RightShoulder 11.343777 -14.287186 -6.490699
RightArm 13.916286 10.439044 61.717116
RightForeArm 27.219260 -0.000000 17.295163
RightHand 11.575446 -0.000000 -20.979178
RightHandThumb1 -24.326973 -0.000000 -32.862282
LeftShoulder -23.877832 8.960021 46.697943
LeftArm 140.709976 -67.753624 -85.845235
LeftForeArm 27.523066 -0.000000 38.093190
LeftHand -17.741913 0.000000 14.862917
LeftHandThumb1 -26.253704 0.000000 33.147579
Head 23.880866 -1.908629 54.889519
1391
root -13.398869 33.820944 -6.100052 3.030123 5.513300 7.840297
RightUpLeg -27.130341 8.366710 11.773165
RightLeg 18.685286 -0.000000 -0.000000
RightFoot -3.320486 -24.317208 2.218085
RightToeBase 13.205078 -0.000000 -0.000000
LeftUpLeg 13.238212 0.526702 -31.260039
LeftLeg -5.413854 -0.000000 0.000000
LeftFoot -8.516247 1.833106 -5.019249
LeftToeBase 2.968314 -0.000000 -0.000000
Spine 20.765836 -14.749262 39.359456
RightShoulder 11.342812 -14.303099 -6.481169
RightArm 13.976280 10.395205 61.692428
RightForeArm 27.411103 0.000000 17.316732
RightHand 11.614469 -0.000000 -21.047843
RightHandThumb1 -24.326973 -0.000000 -32.862282
LeftShoulder -23.947280 8.971779 46.703809
LeftArm 140.907255 -67.661350 -85.866719
LeftForeArm 27.546547 -0.000000 38.247164
LeftHand -17.639838 -0.000000 14.886121
LeftHandThumb1 -26.253704 0.000000 33.147579
Head 23.989429 -2.032115 54.791024
1392
root -13.394318 33.817151 -6.099989 3.040007 5.431260 7.835170
RightUpLeg -27.161050 8.396319 11.788446
RightLeg 18.737185 -0.000000 -0.000000
RightFoot -3.264609 -24.254526 2.092277
RightToeBase 13.073152 -0.000000 -0.000000
LeftUpLeg 13.201070 0.633896 -31.260487
LeftLeg -5.424594 -0.000000 0.000000
LeftFoot -8.527006 1.815108 -4.979833
LeftToeBase 2.837219 -0.000000 -0.000000
Spine 20.825604 -14.761870 39.372132
RightShoulder 11.358826 -14.292618 -6.484799
RightArm 13.996603 10.356862 61.671838
RightForeArm 27.569182 -0.000000 17.356457
RightHand 11.589073 -0.000000 -21.146915
RightHandThumb1 -24.326973 -0.000000 -32.862282
LeftShoulder -23.951276 8.937251 46.742906
LeftArm 140.908089 -67.616012 -85.750126
LeftForeArm 27.610057 -0.000000 38.483703
LeftHand -17.692375 -0.000000 14.721230
LeftHandThumb1 -26.253704 0.000000 33.147579
Head 24.121018 -1.874542 54.871323
1393
root -13.389341 33.814358 -6.099167 3.052676 5.355832 7.834005
RightUpLeg -27.198875 8.432220 11.794334
RightLeg 18.802380 -0.000000 -0.000000
RightFoot -3.262460 -24.240897 2.076458
RightToeBase 13.179207 -0.000000 -0.000000
LeftUpLeg 13.171395 0.667967 -31.269546
LeftLeg -5.443094 -0.000000 0.000000
LeftFoot -8.551058 1.767106 -5.073060
LeftToeBase 3.134736 -0.000000 -0.000000
Spine 20.876373 -14.794300 39.383907
RightShoulder 11.383546 -14.302944 -6.493415
RightArm 14.044118 10.368106 61.660755
RightForeArm 27.551630 -0.000000 17.355341
RightHand 11.553706 -0.000000 -21.084796
RightHandThumb1 -24.326973 -0.000000 -32.862282
LeftShoulder -23.936170 8.900955 46.797053
LeftArm 140.730846 -67.625605 -85.465710
LeftForeArm 27.922658 0.000000 38.665383
LeftHand -17.597073 -0.000000 14.867481
LeftHandThumb1 -26.253704 0.000000 33.147579
Head 24.262507 -1.892763 54.826375
1394
root -13.383292 33.811994 -6.098948 3.063257 5.282828 7.844484
RightUpLeg -27.231495 8.450452 11.791050
RightLeg 18.859920 -0.000000 -0.000000
RightFoot -3.252553 -24.174265 2.014355
RightToeBase 13.092024 -0.000000 -0.000000
LeftUpLeg 13.135517 0.633305 -31.299875
LeftLeg -5.451741 -0.000000 0.000000
LeftFoot -8.534742 1.823910 -5.068254
LeftToeBase 2.947148 -0.000000 -0.000000
Spine 20.927732 -14.792632 39.378353
RightShoulder 11.394283 -14.304291 -6.470432
RightArm 14.063952 10.391677 61.633197
RightForeArm 27.521235 -0.000000 17.324031
RightHand 11.602816 -0.000000 -21.006531
RightHandThumb1 -24.326973 -0.000000 -32.862282
LeftShoulder -23.945879 8.921245 46.792012
LeftArm 140.919127 -67.513738 -85.415095
LeftForeArm 27.966773 -0.000000 38.743451
LeftHand -17.531930 -0.000000 15.088345
LeftHandThumb1 -26.253704 0.000000 33.147579
Head 24.378891 -1.984483 54.765862
1395
root -13.377774 33.810762 -6.097732 3.059039 5.236248 7.845110
RightUpLeg -27.248114 8.438131 11.801204
RightLeg 18.910463 -0.000000 -0.000000
RightFoot -3.227454 -24.126836 1.973994
RightToeBase 13.016042 -0.000000 -0.000000
LeftUpLeg 13.125580 0.608563 -31.317244
LeftLeg -5.456599 -0.000000 0.000000
LeftFoot -8.517607 1.853511 -5.098470
LeftToeBase 2.927416 -0.000000 -0.000000
Spine 20.978759 -14.838593 39.383351
RightShoulder 11.409884 -14.286880 -6.443464
RightArm 14.082314 10.398204 61.600968
RightForeArm 27.546546 -0.000000 17.306017
RightHand 11.618257 -0.000000 -20.972362
RightHandThumb1 -24.326973 -0.000000 -32.862282
LeftShoulder -23.943881 8.942252 46.821925
LeftArm 140.905330 -67.519769 -85.197140
LeftForeArm 27.951796 -0.000000 38.824934
LeftHand -17.522971 -0.000000 15.175296
LeftHandThumb1 -26.253704 0.000000 33.147579
Head 24.516681 -2.018262 54.731215
